<svg xmlns="http://www.w3.org/2000/svg" aria-hidden="true" style="position:absolute;width:0;height:0;overflow:hidden">
  <defs>
    <symbol id="icon-arrow-left" viewBox="0 0 32 32">
      <path fill="none"  stroke-linecap="round" stroke-linejoin="round" stroke-width="2" d="M5.333 16h21.333M5.333 16l8-8m-8 8 8 8" />
    </symbol>
    <symbol id="icon-camera" viewBox="0 0 32 32">
      <path fill="none"  stroke-linejoin="round" stroke-width="2" d="M16 21.333a4 4 0 1 0 0-8 4 4 0 0 0 0 8z" />
      <path fill="none"  stroke-linejoin="round" stroke-width="2" d="M4 12a2.667 2.667 0 0 1 2.667-2.667H10c.736 0 1.333-.597 1.333-1.333s.597-1.333 1.333-1.333h6.667c.736 0 1.333.597 1.333 1.333s.597 1.333 1.333 1.333h3.333A2.667 2.667 0 0 1 27.999 12v10.667a2.667 2.667 0 0 1-2.667 2.667H6.665a2.667 2.667 0 0 1-2.667-2.667V12z" />
    </symbol>
    <symbol id="icon-check" viewBox="0 0 32 32">
      <path fill="none"  stroke-linecap="round" stroke-linejoin="round" stroke-width="2" d="M26.667 9.333 12 24l-6.667-6.667" />
    </symbol>
    <symbol id="icon-check-round" viewBox="0 0 32 32">
      <path fill="none"  stroke-linecap="round" stroke-linejoin="round" stroke-width="2" d="m22.667 12-9.333 9.333-4-4m1.333 9.334h10.667a5.333 5.333 0 0 0 5.333-5.333V10.667a5.333 5.333 0 0 0-5.333-5.333H10.667a5.333 5.333 0 0 0-5.333 5.333v10.667a5.333 5.333 0 0 0 5.333 5.333z" />
    </symbol>
    <symbol id="icon-chevron-down" viewBox="0 0 32 32">
      <path fill="none"  stroke-linecap="round" stroke-linejoin="round" stroke-width="2" d="M5.333 12 16 22.667 26.667 12" />
    </symbol>
    <symbol id="icon-chevron-up" viewBox="0 0 32 32">
      <path fill="none"  stroke-linecap="round" stroke-linejoin="round" stroke-width="2" d="M26.667 20 16 9.333 5.333 20" />
    </symbol>
    <symbol id="icon-clock" viewBox="0 0 32 32">
      <path fill="none"  stroke-linecap="round" stroke-linejoin="round" stroke-width="1.92" d="M16.33 9.6V16l3.84 3.84M27.85 16c0 6.362-5.158 11.52-11.52 11.52S4.81 22.362 4.81 16c0-6.362 5.158-11.52 11.52-11.52S27.85 9.638 27.85 16z" />
    </symbol>
    <symbol id="icon-cross" viewBox="0 0 32 32">
      <path fill="none"  stroke-linecap="round" stroke-linejoin="round" stroke-width="2" d="M25.333 6.667 6.666 25.334m.001-18.667 18.667 18.667" />
    </symbol>
    <symbol id="icon-cross-small" viewBox="0 0 32 32">
      <path fill="none"  stroke-linecap="round" stroke-linejoin="round" stroke-width="2" d="M21.333 10.667 10.666 21.334m.001-10.667 10.667 10.667" />
    </symbol>
    <symbol id="icon-edit" viewBox="0 0 32 32">
      <path  d="m6.667 20.941-.707-.707a.997.997 0 0 0-.293.707h1zM20.941 6.667l.707-.707a.999.999 0 0 0-1.414 0l.707.707zm4.392 4.392.707.707a.999.999 0 0 0 0-1.414l-.707.707zM11.059 25.333v1c.265 0 .52-.105.707-.293l-.707-.707zm-4.392 0h-1a1 1 0 0 0 1 1v-1zm8.784-1a1 1 0 0 0 0 2v-2zm9.333 2a1 1 0 0 0 0-2v2zm-17.41-4.685L21.648 7.374 20.234 5.96 5.959 20.235l1.414 1.414zm12.86-14.274 4.392 4.392 1.414-1.414-4.392-4.392-1.414 1.414zm4.392 2.978L10.351 24.627l1.414 1.414 14.274-14.274-1.414-1.414zM11.059 24.333H6.667v2h4.392v-2zm-3.392 1v-4.392h-2v4.392h2zm9.273-14.665 4.392 4.392 1.414-1.414-4.392-4.392-1.414 1.414zm-1.489 15.665h9.333v-2h-9.333v2z" />
    </symbol>
    <symbol id="icon-eye-closed" viewBox="0 0 32 32">
      <path fill="none"  stroke-linecap="round" stroke-linejoin="round" stroke-width="2" d="M13.019 7.06A11.47 11.47 0 0 1 16 6.666c8.485 0 13.333 9.333 13.333 9.333s-1.105 2.128-3.184 4.351m-20.35-8.646C3.754 13.907 2.667 16 2.667 16S7.515 25.333 16 25.333c1.069 0 2.081-.148 3.033-.407m-3.7-4.981a4.007 4.007 0 0 1-3.106-2.611m4.44-5.279a4.003 4.003 0 0 1 3.278 3.278M4 4l24 24" />
    </symbol>
    <symbol id="icon-eye-open" viewBox="0 0 32 32">
      <path fill="none"  stroke-linecap="round" stroke-linejoin="round" stroke-width="2" d="M2.667 16S7.515 6.667 16 6.667 29.333 16 29.333 16 24.484 25.333 16 25.333C7.515 25.333 2.667 16 2.667 16z" />
      <path fill="none"  stroke-linecap="round" stroke-linejoin="round" stroke-width="2" d="M16 20a4 4 0 1 0 0-8 4 4 0 0 0 0 8z" />
    </symbol>
    <symbol id="icon-female" viewBox="0 0 32 32">
      <path fill="none"  stroke-linecap="round" stroke-linejoin="round" stroke-width="1.92" d="M16.33 17.28c3.535 0 6.4-2.865 6.4-6.4s-2.865-6.4-6.4-6.4-6.4 2.865-6.4 6.4 2.865 6.4 6.4 6.4zm0 0v10.24m-3.84-3.84h7.68" />
    </symbol>
    <symbol id="icon-filters-2" viewBox="0 0 32 32">
      <path fill="none"  stroke-linecap="round" stroke-width="2" d="M18.667 6.667a2.667 2.667 0 1 0-5.334 0m5.334 0a2.667 2.667 0 1 1-5.334 0m5.334 0h8m-13.334 0h-8m16 9.333a2.667 2.667 0 1 0 5.334 0 2.667 2.667 0 0 0-5.334 0zm0 0h-16m5.334 9.333a2.667 2.667 0 1 0-5.334 0 2.667 2.667 0 0 0 5.334 0zm0 0h16" />
    </symbol>
    <symbol id="icon-filters-3" viewBox="0 0 32 32">
      <path fill="none"  stroke-linecap="round" stroke-linejoin="round" stroke-width="1.92" d="M6.09 5.76 12.49 16v7.68l7.68 3.84V16l6.4-10.24H6.09z" />
    </symbol>
    <symbol id="icon-heart" viewBox="0 0 32 32">
      <path fill="none"  stroke-linecap="round" stroke-linejoin="round" stroke-width="2" d="M5.775 16.063 16 26.666l10.225-10.603A6.403 6.403 0 0 0 28 11.619c0-3.471-2.714-6.285-6.061-6.285a5.954 5.954 0 0 0-4.286 1.841L16 8.89l-1.653-1.715a5.953 5.953 0 0 0-4.286-1.841C6.714 5.334 4 8.148 4 11.619c0 1.667.639 3.266 1.775 4.444z" />
    </symbol>
    <symbol id="icon-heart-full" viewBox="0 0 32 32">
        <path strokeLinecap="round" strokeLinejoin="round" strokeWidth="2" d="M5.775 16.063 16 26.666l10.225-10.603A6.403 6.403 0 0 0 28 11.619c0-3.471-2.714-6.285-6.061-6.285a5.954 5.954 0 0 0-4.286 1.841L16 8.89l-1.653-1.715a5.953 5.953 0 0 0-4.286-1.841C6.714 5.334 4 8.148 4 11.619c0 1.667.639 3.266 1.775 4.444z"/>
    </symbol>
    <symbol id="icon-location" viewBox="0 0 32 32">
      <path fill="none"  stroke-linecap="round" stroke-linejoin="round" stroke-width="1.92" d="M26.57 14.72c0 5.655-4.585 10.24-10.24 12.8-5.655-2.56-10.24-7.145-10.24-12.8S10.675 4.48 16.33 4.48s10.24 4.585 10.24 10.24z" />
      <path fill="none"  stroke-linecap="round" stroke-linejoin="round" stroke-width="1.92" d="M20.17 14.72a3.84 3.84 0 1 1-7.68 0 3.84 3.84 0 0 1 7.68 0z" />
    </symbol>
    <symbol id="icon-logout" viewBox="0 0 32 32">
      <path fill="none"  stroke-linecap="round" stroke-linejoin="round" stroke-width="2" d="M18.667 5.333H24A2.667 2.667 0 0 1 26.667 8v16A2.667 2.667 0 0 1 24 26.667h-5.333M4 16h16M4 16l5.333-5.333M4 16l5.333 5.333" />
    </symbol>
    <symbol id="icon-male" viewBox="0 0 32 32">
      <path fill="none"  stroke-linecap="round" stroke-linejoin="round" stroke-width="1.92" d="M16.33 14.72c-3.535 0-6.4 2.865-6.4 6.4s2.865 6.4 6.4 6.4 6.4-2.865 6.4-6.4-2.865-6.4-6.4-6.4zm0 0V4.48m0 0 5.12 5.12m-5.12-5.12L11.21 9.6" />
    </symbol>
    <symbol id="icon-menu-hamburger" viewBox="0 0 32 32">
      <path fill="none"  stroke-linecap="round" stroke-linejoin="round" stroke-width="2" d="M5.333 9.333h21.333M5.333 16h21.333M5.333 22.667h21.333" />
    </symbol>
    <symbol id="icon-pawprint" viewBox="0 0 32 32">
      <path d="M20.482 19.149c-.356-2.644-2.011-4.897-4.429-6.024s-5.208-.948-7.462.479l-5.432 3.439c-.901.571-1.58 1.399-1.964 2.394s-.436 2.065-.15 3.093c.286 1.028.882 1.918 1.725 2.573s1.852 1.014 2.919 1.037l.07.001a9.697 9.697 0 0 1 6.986 3.289 4.915 4.915 0 0 0 2.67 1.569c1.043.224 2.108.109 3.08-.332s1.757-1.169 2.274-2.103a4.903 4.903 0 0 0 .572-3.044l-.857-6.372zm-2.765 9.812a3.04 3.04 0 0 1-3.563-.766 11.561 11.561 0 0 0-8.423-3.929l-.046-.001a3.04 3.04 0 0 1-2.833-2.236 3.041 3.041 0 0 1 1.31-3.401l5.432-3.439c1.712-1.084 3.829-1.22 5.665-.364s3.093 2.566 3.363 4.574l.857 6.372a3.04 3.04 0 0 1-1.763 3.19zM6.295 12.527c1.103.077 2.165-.346 2.991-1.19.786-.803 1.264-1.901 1.346-3.091S10.391 5.904 9.723 5c-.702-.949-1.696-1.514-2.798-1.59-2.216-.154-4.161 1.766-4.336 4.281-.137 2.003.89 3.786 2.433 4.506.394.184.822.298 1.272.329zM4.461 7.821C4.564 6.339 5.612 5.2 6.797 5.282c.214.015.422.069.618.161.302.141.576.369.8.673.403.546.597 1.257.546 2.002s-.341 1.423-.816 1.908c-.435.444-.975.668-1.52.63h-.001C5.24 10.575 4.36 9.303 4.461 7.821zM14.188 11.529c2.349 1.095 5.275-.191 6.523-2.867s.353-5.746-1.996-6.841c-2.349-1.095-5.275.191-6.523 2.868s-.352 5.745 1.996 6.84zm3.735-8.008c1.411.658 1.9 2.609 1.089 4.348s-2.619 2.618-4.031 1.96-1.9-2.608-1.089-4.347c.811-1.739 2.619-2.619 4.031-1.961zM20.992 16.152a3.83 3.83 0 0 0 1.014.689c1.713.799 3.964.33 5.495-1.289.881-.932 1.401-2.109 1.463-3.315.065-1.262-.371-2.404-1.23-3.217s-2.025-1.184-3.281-1.047c-1.201.131-2.347.716-3.227 1.648-1.858 1.966-1.963 4.896-.234 6.531zm1.596-5.243c.575-.609 1.309-.989 2.067-1.071.701-.076 1.337.118 1.79.546s.682 1.052.645 1.756c-.039.761-.378 1.516-.953 2.124-1.148 1.215-2.878 1.45-3.857.525-.978-.925-.84-2.665.308-3.88zM30.227 19.769v-.001c-1.062-1.952-3.726-2.563-5.94-1.362-2.213 1.203-3.152 3.77-2.093 5.721a3.679 3.679 0 0 0 1.699 1.579c1.243.58 2.833.548 4.241-.215 2.213-1.203 3.152-3.769 2.093-5.722zm-2.988 4.073c-1.307.709-2.831.435-3.397-.609-.566-1.043.035-2.469 1.339-3.178.867-.47 1.83-.508 2.545-.174.362.169.661.433.852.784.565 1.044-.036 2.469-1.339 3.178z" />
    </symbol>
    <symbol id="icon-plus" viewBox="0 0 32 32">
      <path fill="none"  stroke-linecap="round" stroke-width="2.667" d="M16 26.667V16m0 0V5.333M16 16h10.667M16 16H5.333" />
    </symbol>
    <symbol id="icon-plus-small" viewBox="0 0 32 32">
      <path fill="none"  stroke-linecap="round" stroke-linejoin="round" stroke-width="2" d="M16 9.333v13.333M9.333 16h13.333" />
    </symbol>
    <symbol id="icon-round" viewBox="0 0 32 32">
      <path fill="none"  stroke-linejoin="round" stroke-width="2" d="M5.333 10.667a5.333 5.333 0 0 1 5.333-5.333h10.667a5.333 5.333 0 0 1 5.333 5.333v10.667a5.333 5.333 0 0 1-5.333 5.333H10.666a5.333 5.333 0 0 1-5.333-5.333V10.667z" />
    </symbol>
    <symbol id="icon-search" viewBox="0 0 32 32">
      <path d="M25.96 27.374a.999.999 0 1 0 1.414-1.414l-1.414 1.414zM23 14a9 9 0 0 1-9 9v2c6.075 0 11-4.925 11-11h-2zm-9 9a9 9 0 0 1-9-9H3c0 6.075 4.925 11 11 11v-2zm-9-9a9 9 0 0 1 9-9V3C7.925 3 3 7.925 3 14h2zm9-9a9 9 0 0 1 9 9h2c0-6.075-4.925-11-11-11v2zm13.374 20.96-5.583-5.583-1.414 1.414 5.583 5.583 1.414-1.414z" />
    </symbol>
    <symbol id="icon-trash" viewBox="0 0 32 32">
      <path fill="none"  stroke-linecap="round" stroke-linejoin="round" stroke-width="2" d="M24 8v16a2.667 2.667 0 0 1-2.667 2.667H10.666A2.667 2.667 0 0 1 7.999 24V8M20 8V6.667A2.667 2.667 0 0 0 17.333 4h-2.667a2.667 2.667 0 0 0-2.667 2.667V8M5.333 8h21.333m-13.333 5.333v8m5.334-8v8" />
    </symbol>
    <symbol id="icon-user" viewBox="0 0 32 32">
      <path fill="none" stroke="#ffc107" stroke-linecap="round" stroke-linejoin="round" stroke-width="1.714" d="M25.143 27.429v-2.286a4.571 4.571 0 0 0-4.571-4.571h-9.143a4.571 4.571 0 0 0-4.571 4.571v2.286m13.713-16a4.571 4.571 0 1 1-9.142 0 4.571 4.571 0 0 1 9.142 0z" style="stroke:var(--color4, #ffc107)"/>
      <path fill="none" stroke="#ffc107" stroke-width="1.714" d="M16 .857c8.363 0 15.143 6.78 15.143 15.143S24.363 31.143 16 31.143.857 24.363.857 16 7.637.857 16 .857z" style="stroke:var(--color4, #ffc107)"/>
    </symbol>
  </defs>
</svg>
