<svg xmlns="http://www.w3.org/2000/svg" aria-hidden="true" style="position:absolute;width:0;height:0;overflow:hidden">
  <defs>
    <symbol id="icon-arrow-left" viewBox="0 0 32 32">
      <path fill="none"  stroke-linecap="round" stroke-linejoin="round" stroke-width="2" d="M5.333 16h21.333M5.333 16l8-8m-8 8 8 8" />
    </symbol>
    <symbol id="icon-camera" viewBox="0 0 32 32">
      <path fill="none"  stroke-linejoin="round" stroke-width="2" d="M16 21.333a4 4 0 1 0 0-8 4 4 0 0 0 0 8z" />
      <path fill="none"  stroke-linejoin="round" stroke-width="2" d="M4 12a2.667 2.667 0 0 1 2.667-2.667H10c.736 0 1.333-.597 1.333-1.333s.597-1.333 1.333-1.333h6.667c.736 0 1.333.597 1.333 1.333s.597 1.333 1.333 1.333h3.333A2.667 2.667 0 0 1 27.999 12v10.667a2.667 2.667 0 0 1-2.667 2.667H6.665a2.667 2.667 0 0 1-2.667-2.667V12z" />
    </symbol>
    <symbol id="icon-check" viewBox="0 0 32 32">
      <path fill="none"  stroke-linecap="round" stroke-linejoin="round" stroke-width="2" d="M26.667 9.333 12 24l-6.667-6.667" />
    </symbol>
    <symbol id="icon-check-round" viewBox="0 0 32 32">
      <path fill="none"  stroke-linecap="round" stroke-linejoin="round" stroke-width="2" d="m22.667 12-9.333 9.333-4-4m1.333 9.334h10.667a5.333 5.333 0 0 0 5.333-5.333V10.667a5.333 5.333 0 0 0-5.333-5.333H10.667a5.333 5.333 0 0 0-5.333 5.333v10.667a5.333 5.333 0 0 0 5.333 5.333z" />
    </symbol>
    <symbol id="icon-chevron-down" viewBox="0 0 32 32">
      <path fill="none"  stroke-linecap="round" stroke-linejoin="round" stroke-width="2" d="M5.333 12 16 22.667 26.667 12" />
    </symbol>
    <symbol id="icon-chevron-up" viewBox="0 0 32 32">
      <path fill="none"  stroke-linecap="round" stroke-linejoin="round" stroke-width="2" d="M26.667 20 16 9.333 5.333 20" />
    </symbol>
    <symbol id="icon-clock" viewBox="0 0 32 32">
      <path fill="none"  stroke-linecap="round" stroke-linejoin="round" stroke-width="1.92" d="M16.33 9.6V16l3.84 3.84M27.85 16c0 6.362-5.158 11.52-11.52 11.52S4.81 22.362 4.81 16c0-6.362 5.158-11.52 11.52-11.52S27.85 9.638 27.85 16z" />
    </symbol>
    <symbol id="icon-cross" viewBox="0 0 32 32">
      <path fill="none"  stroke-linecap="round" stroke-linejoin="round" stroke-width="2" d="M25.333 6.667 6.666 25.334m.001-18.667 18.667 18.667" />
    </symbol>
    <symbol id="icon-cross-small" viewBox="0 0 32 32">
      <path fill="none"  stroke-linecap="round" stroke-linejoin="round" stroke-width="2" d="M21.333 10.667 10.666 21.334m.001-10.667 10.667 10.667" />
    </symbol>
    <symbol id="icon-edit" viewBox="0 0 32 32">
      <path y d="m6.667 20.941-.707-.707a.997.997 0 0 0-.293.707h1zM20.941 6.667l.707-.707a.999.999 0 0 0-1.414 0l.707.707zm4.392 4.392.707.707a.999.999 0 0 0 0-1.414l-.707.707zM11.059 25.333v1c.265 0 .52-.105.707-.293l-.707-.707zm-4.392 0h-1a1 1 0 0 0 1 1v-1zm8.784-1a1 1 0 0 0 0 2v-2zm9.333 2a1 1 0 0 0 0-2v2zm-17.41-4.685L21.648 7.374 20.234 5.96 5.959 20.235l1.414 1.414zm12.86-14.274 4.392 4.392 1.414-1.414-4.392-4.392-1.414 1.414zm4.392 2.978L10.351 24.627l1.414 1.414 14.274-14.274-1.414-1.414zM11.059 24.333H6.667v2h4.392v-2zm-3.392 1v-4.392h-2v4.392h2zm9.273-14.665 4.392 4.392 1.414-1.414-4.392-4.392-1.414 1.414zm-1.489 15.665h9.333v-2h-9.333v2z" />
    </symbol>
    <symbol id="icon-eye-closed" viewBox="0 0 32 32">
      <path fill="none"  stroke-linecap="round" stroke-linejoin="round" stroke-width="2" d="M13.019 7.06A11.47 11.47 0 0 1 16 6.666c8.485 0 13.333 9.333 13.333 9.333s-1.105 2.128-3.184 4.351m-20.35-8.646C3.754 13.907 2.667 16 2.667 16S7.515 25.333 16 25.333c1.069 0 2.081-.148 3.033-.407m-3.7-4.981a4.007 4.007 0 0 1-3.106-2.611m4.44-5.279a4.003 4.003 0 0 1 3.278 3.278M4 4l24 24" />
    </symbol>
    <symbol id="icon-eye-open" viewBox="0 0 32 32">
      <path fill="none"  stroke-linecap="round" stroke-linejoin="round" stroke-width="2" d="M2.667 16S7.515 6.667 16 6.667 29.333 16 29.333 16 24.484 25.333 16 25.333C7.515 25.333 2.667 16 2.667 16z" />
      <path fill="none"  stroke-linecap="round" stroke-linejoin="round" stroke-width="2" d="M16 20a4 4 0 1 0 0-8 4 4 0 0 0 0 8z" />
    </symbol>
    <symbol id="icon-female" viewBox="0 0 32 32">
      <path fill="none"  stroke-linecap="round" stroke-linejoin="round" stroke-width="1.92" d="M16.33 17.28c3.535 0 6.4-2.865 6.4-6.4s-2.865-6.4-6.4-6.4-6.4 2.865-6.4 6.4 2.865 6.4 6.4 6.4zm0 0v10.24m-3.84-3.84h7.68" />
    </symbol>
    <symbol id="icon-filters-2" viewBox="0 0 32 32">
      <path fill="none"  stroke-linecap="round" stroke-width="2" d="M18.667 6.667a2.667 2.667 0 1 0-5.334 0m5.334 0a2.667 2.667 0 1 1-5.334 0m5.334 0h8m-13.334 0h-8m16 9.333a2.667 2.667 0 1 0 5.334 0 2.667 2.667 0 0 0-5.334 0zm0 0h-16m5.334 9.333a2.667 2.667 0 1 0-5.334 0 2.667 2.667 0 0 0 5.334 0zm0 0h16" />
    </symbol>
    <symbol id="icon-filters-3" viewBox="0 0 32 32">
      <path fill="none"  stroke-linecap="round" stroke-linejoin="round" stroke-width="1.92" d="M6.09 5.76 12.49 16v7.68l7.68 3.84V16l6.4-10.24H6.09z" />
    </symbol>
    <symbol id="icon-heart" viewBox="0 0 32 32">
      <path fill="none"  stroke-linecap="round" stroke-linejoin="round" stroke-width="2" d="M5.775 16.063 16 26.666l10.225-10.603A6.403 6.403 0 0 0 28 11.619c0-3.471-2.714-6.285-6.061-6.285a5.954 5.954 0 0 0-4.286 1.841L16 8.89l-1.653-1.715a5.953 5.953 0 0 0-4.286-1.841C6.714 5.334 4 8.148 4 11.619c0 1.667.639 3.266 1.775 4.444z" />
    </symbol>
    <symbol id="icon-heart-full" viewBox="0 0 32 32">
      <path y  stroke-linecap="round" stroke-linejoin="round" stroke-width="2" d="M5.775 16.063 16 26.666l10.225-10.603A6.403 6.403 0 0 0 28 11.619c0-3.471-2.714-6.285-6.061-6.285a5.954 5.954 0 0 0-4.286 1.841L16 8.89l-1.653-1.715a5.953 5.953 0 0 0-4.286-1.841C6.714 5.334 4 8.148 4 11.619c0 1.667.639 3.266 1.775 4.444z"/>
    </symbol>
    <symbol id="icon-location" viewBox="0 0 32 32">
      <path fill="none"  stroke-linecap="round" stroke-linejoin="round" stroke-width="1.92" d="M26.57 14.72c0 5.655-4.585 10.24-10.24 12.8-5.655-2.56-10.24-7.145-10.24-12.8S10.675 4.48 16.33 4.48s10.24 4.585 10.24 10.24z" />
      <path fill="none"  stroke-linecap="round" stroke-linejoin="round" stroke-width="1.92" d="M20.17 14.72a3.84 3.84 0 1 1-7.68 0 3.84 3.84 0 0 1 7.68 0z" />
    </symbol>
    <symbol id="icon-logo" viewBox="0 0 185 32">
      <path fill="#303030" d="M3.821 29.357C1.726 29.071.452 27.964 0 26.035l.036-.393.321-.964c.119-.405.25-.798.393-1.179.143-.405.381-.762.714-1.071.071-.214.202-.536.393-.964a46.55 46.55 0 0 1 1.036-2c.381-.69.679-1.238.893-1.643.238-.405.429-.714.571-.929a5.223 5.223 0 0 0-1-1.25 31.75 31.75 0 0 1-1-2.036 17.722 17.722 0 0 1-.607-1.786 7.65 7.65 0 0 0-.286-1.75l-.214-.929a4.303 4.303 0 0 1-.107-.964 2.783 2.783 0 0 1-.25-.643l.071-.429c.119-.19.143-.44.071-.75a7.593 7.593 0 0 0-.214-1 65.19 65.19 0 0 1-.214-.964c-.048-.357-.06-.702-.036-1.036s.107-.655.25-.964c.167-.31.44-.571.821-.786l.357-.25.357.214c.262.167.512.31.75.429l.714.357c.286.143.571.298.857.464.286.143.595.31.929.5l.357.25-.036.393a.587.587 0 0 0 .143.358l.393.107.036.5v.429c0 .214.012.369.036.464a.923.923 0 0 0 .143.25l.179.464c0 .429.036.81.107 1.143s.155.667.25 1c.119.333.214.679.286 1.036.071.333.083.702.036 1.107.143-.071.286-.179.429-.321l.143-.143.214-.143 2.5-3.393-.071-.429.893-.857c.238-.19.464-.381.678-.571a3.12 3.12 0 0 0 .536-.714l.214-.321c1.071-1.429 2.452-2.31 4.143-2.643l.607-.143.178.571c.119.333.345.631.679.893a23.8 23.8 0 0 0 1.143.714l.393.25c.143.286.214.5.214.643s-.012.262-.036.357l.178.464c-.262.69-.548 1.19-.857 1.5-.309.286-.631.56-.964.821-.262.214-.5.429-.714.643s-.381.452-.5.714l-.286.357c-.595.31-.976.762-1.143 1.357l-.143.5h-.536c-.024 0-.083.06-.178.179-.095.095-.238.345-.429.75a6.095 6.095 0 0 1-.464.571l-.179.178a4.425 4.425 0 0 1-.143.322 4.973 4.973 0 0 1-.107.357l-.214.286a1.973 1.973 0 0 0-.464.571c-.095.167-.202.369-.322.607-.095.214-.202.441-.322.679a2.955 2.955 0 0 1-.5.643l.071.393-.286.25c-.19.167-.357.381-.5.643-.143.238-.286.488-.429.75-.143.286-.298.571-.464.857s-.381.548-.643.786a6.814 6.814 0 0 1-.464 1c-.119.238-.333.524-.643.857-.286 1.143-.964 2.369-2.036 3.679a2.019 2.019 0 0 1-.25.786c-.119.238-.25.464-.393.678a5.102 5.102 0 0 1-.179.322l-.107.214-.107.393a2.827 2.827 0 0 1-.464.643 7.843 7.843 0 0 1-.429.464 1.41 1.41 0 0 0-.214.179 1.155 1.155 0 0 1-.143.178l-.607.214zM76.066 7.857c.048.524.131.976.25 1.357s.25.75.393 1.107c.119.333.226.667.321 1 .119.31.202.69.25 1.143a15.09 15.09 0 0 0-.429 1.714 55.247 55.247 0 0 1-.25 1.643c-.381.833-.75 1.571-1.107 2.214s-.643 1.202-.857 1.679a2.038 2.038 0 0 0-.322.429 9.045 9.045 0 0 1-.25.464c-.048.072-.107.179-.179.322s-.131.238-.178.286l-.714-.25-.143.893-.5.143-.357.429a11.356 11.356 0 0 1-1.429 2c-.5.524-1.071 1-1.714 1.429-.619.405-1.333.786-2.143 1.143-.786.357-1.679.75-2.679 1.178a9.207 9.207 0 0 0-1.071-.071c-.286-.024-.559-.048-.821-.072-.452 0-1.012-.036-1.679-.107-.071-.191-.178-.322-.321-.393s-.274-.107-.393-.107a2.09 2.09 0 0 1-.929-.822c-.19-.381-.381-.786-.571-1.214a9.883 9.883 0 0 0-.357-.714c-.119-.238-.25-.476-.393-.714l.607-.179-.786-.857a.66.66 0 0 0-.178-.179 1.472 1.472 0 0 1-.179-.214l-.036-.571a105 105 0 0 1-.107-4.5c.024-1.381.214-2.607.571-3.678v-.393c.071-.524.143-.952.214-1.286.071-.357.131-.691.179-1a8.742 8.742 0 0 1 .321-1.464c.333-.071.583-.202.75-.393.167-.214.309-.405.429-.571.333-.024.56.024.678.143s.238.31.357.571c.119.214.262.452.429.714.191.262.464.464.822.607a8.7 8.7 0 0 0 .178.607c.095.19.191.405.286.643.191.405.357.833.5 1.286.167.429.262.845.286 1.25a6.71 6.71 0 0 0-.571 1.571 15.314 15.314 0 0 0-.25 1.821c-.024.595-.012 1.179.036 1.75.071.548.179 1.012.322 1.393l.214.464.607-.071a21.078 21.078 0 0 0 1.929-.607c.595-.238 1.143-.512 1.643-.822s.976-.667 1.429-1.071c.452-.429.929-.917 1.429-1.464s.929-1.167 1.286-1.857c.381-.714.691-1.452.929-2.214.262-.762.452-1.512.571-2.25.143-.762.238-1.476.286-2.143.405-.143.607-.429.607-.857l-.071-.393c-.095-.143-.095-.31 0-.5.143-.452.476-.798 1-1.036.381.238.714.5 1 .786.309.286.595.571.857.857zM83.6 24.464c-.262.952-.5 1.679-.714 2.179-.191.476-.488.976-.893 1.5-.31-.048-.524-.012-.643.107s-.25.226-.393.321c-.214.048-.369.048-.464 0s-.179-.107-.25-.178a7.306 7.306 0 0 0-.286-.179c-.095-.048-.25-.071-.464-.071a3.51 3.51 0 0 0-.179-.536c-.048-.167-.202-.226-.464-.178.048-.191.059-.345.036-.464a1.292 1.292 0 0 0-.107-.357 8.54 8.54 0 0 0-.071-.321.917.917 0 0 1 .036-.429c-.119 0-.214-.083-.286-.25s-.155-.333-.25-.5c.071-.429.143-.833.214-1.214s.155-.738.25-1.071c.119-.333.214-.667.286-1s.036-.679-.107-1.036c.095.071.167.06.214-.036.048-.119.083-.262.107-.429.024-.19.036-.369.036-.536 0-.191-.012-.345-.036-.464.238-.619.429-1.25.571-1.893.167-.667.309-1.321.429-1.964.143-.643.286-1.274.429-1.893s.333-1.191.571-1.714c.262-.048.548-.012.857.107.333.095.536.226.607.393a8.049 8.049 0 0 0 1.643-1.714c.476-.69.964-1.357 1.464-2s1.048-1.214 1.643-1.714c.619-.5 1.393-.798 2.322-.893.476.357 1 .726 1.571 1.107a4.413 4.413 0 0 1 1.464 1.429c.191.095.345.202.464.321.143.095.309.202.5.321v.429a2.9 2.9 0 0 1 .678.929c.191.333.357.702.5 1.107.143.381.286.774.429 1.178.143.381.309.75.5 1.107a.867.867 0 0 0-.071.321c0 .071.012.155.036.25.048.095.083.19.107.286s.024.226 0 .393c-.071 1.048-.417 1.893-1.036 2.536a7.495 7.495 0 0 1-2.179 1.607c-.857.405-1.774.75-2.75 1.036s-1.857.595-2.643.928c0 .095.036.143.107.143.095 0 .131.06.107.179.571.357 1.024.643 1.357.857s.643.393.929.536c.309.143.631.274.964.393.357.095.845.214 1.464.357s1.095.262 1.429.357c.357.071.678.143.964.214l.857.143c.309.024.738.06 1.286.107.214.214.393.476.536.786.167.286.274.583.321.893.048.286.06.571.036.857a1.116 1.116 0 0 1-.25.643c.024.071.071.107.143.107a.577.577 0 0 1 .286 0c-.143.095-.262.214-.357.357l-.286.429a1.546 1.546 0 0 1-.321.357c-.119.119-.286.191-.5.214-.738.286-1.667.298-2.786.036-1.119-.238-2.536-.691-4.25-1.357a59.213 59.213 0 0 1-2.107-.857 23.582 23.582 0 0 1-1.393-.75 12.798 12.798 0 0 1-1.071-.821c-.309-.286-.691-.631-1.143-1.036zm5.107-12.25c-.262.381-.56.726-.893 1.036-.309.309-.619.631-.929.964a6.212 6.212 0 0 0-.786 1.071 3.824 3.824 0 0 0-.5 1.357c.833-.095 1.702-.322 2.607-.678.905-.381 1.762-.738 2.571-1.072-.095-.738-.357-1.333-.786-1.786-.405-.452-.833-.75-1.286-.893zM114.875 18.856c.026-.103.077-.141.154-.116a.88.88 0 0 0 .27-.038c-.206-.205-.334-.475-.385-.809-.051-.359-.179-.654-.385-.886.051-.128.09-.257.115-.385.051-.128.167-.18.346-.154-.077-.565-.064-1.091.039-1.579s.256-.95.462-1.386c.231-.436.488-.86.77-1.271.309-.436.603-.873.886-1.309.231-.051.373-.026.424.077.05.077.141.051.269-.077.411-.282.694-.59.848-.924.153-.359.231-.744.231-1.155.231-.667.487-1.322.77-1.964.307-.667.654-1.284 1.039-1.848s.795-1.052 1.232-1.463c.437-.436.912-.77 1.425-1.001.359-.308.808-.59 1.347-.847a8.439 8.439 0 0 1 1.771-.578 8.378 8.378 0 0 1 1.963-.231 6.066 6.066 0 0 1 1.848.193c.129.051.206.026.232-.077.025-.128.089-.193.192-.193 1.283.154 2.426.411 3.427.77 1.026.359 1.899.86 2.618 1.502.487.77.95 1.604 1.385 2.503.437.873.77 1.797 1.001 2.772.257.95.373 1.938.347 2.965a8.862 8.862 0 0 1-.655 3.08 10.522 10.522 0 0 1-3.273 2.734 25.165 25.165 0 0 1-4.159 1.694c-1.463.436-2.99.796-4.582 1.078-1.566.282-3.093.59-4.582.924.025.693.025 1.438 0 2.233-.026.77-.115 1.553-.27 2.349-.128.77-.334 1.527-.616 2.272a8.012 8.012 0 0 1-1.078 2.079 5.942 5.942 0 0 0-1.617.154c-.539.128-1.027.257-1.464.385l-.616-.385c-.179-.103-.41-.167-.693-.192.077-.308 0-.629-.231-.963a13.024 13.024 0 0 0-.655-.963 3.457 3.457 0 0 1-.424-.963c-.051-.334.103-.629.463-.886-.206-.18-.309-.462-.309-.847a.522.522 0 0 0 .385.154c-.051-.462 0-1.014.154-1.656.179-.642.32-1.271.423-1.887.129-.642.154-1.219.078-1.733-.078-.539-.385-.924-.925-1.155zm10.012-9.01c-.103.282-.193.539-.27.77a3.803 3.803 0 0 1-.192.578c-.078.18-.167.359-.27.539-.078.18-.167.385-.27.616.051.154.154.27.307.347a.589.589 0 0 1 .309.347c.359-.18.719-.308 1.078-.385.36-.103.719-.18 1.079-.231.359-.051.719-.116 1.078-.193s.731-.205 1.117-.385a6.6 6.6 0 0 1 1.194-.424 84.3 84.3 0 0 0 1.27-.385c.411-.128.809-.27 1.194-.424.385-.18.719-.411 1.001-.693-.36-.334-.898-.629-1.617-.886s-1.502-.411-2.349-.462a8.268 8.268 0 0 0-2.503.154 4.587 4.587 0 0 0-2.157 1.117zM159.849 8.036c.025.18.025.321 0 .424a.747.747 0 0 1-.039.231v.27c0 .077.025.205.077.385-.538.873-1.168 1.476-1.887 1.81-.693.308-1.45.539-2.271.693-.822.128-1.669.27-2.542.424-.847.154-1.694.488-2.542 1.001-.334-.128-.641-.128-.923 0-.257.128-.642.167-1.155.115-.154.154-.346.27-.577.347a6.901 6.901 0 0 0-.694.192c.103.231.142.475.115.732 0 .231.039.424.115.578a16.51 16.51 0 0 0 2.966-.039 46.753 46.753 0 0 1 3.234-.192c.025.128.013.218-.039.27-.051.026-.064.09-.039.193.181.128.36.295.539.501l.539.539c.179.18.359.334.538.462.206.103.437.141.694.116.103.205.167.436.192.693.051.231.026.475-.077.732-.41.282-.822.578-1.232.886-.411.282-.847.539-1.31.77a7.894 7.894 0 0 1-1.424.578c-.488.128-1.04.18-1.656.154h-.309c-.05 0-.128-.038-.231-.116-.205.128-.501.167-.886.116-.359-.051-.641-.013-.847.115-.282-.128-.629-.18-1.039-.154-.385 0-.733-.051-1.04-.154-.411.539-.783 1.117-1.117 1.733s-.63 1.271-.886 1.964c.873.128 1.591.18 2.157.154.59-.026 1.142-.064 1.655-.116a30.29 30.29 0 0 1 1.579-.193c.538-.077 1.219-.103 2.04-.077.514-.282 1.117-.462 1.81-.539a10.53 10.53 0 0 0 1.963-.462c.206.077.385.218.539.424.154.18.295.359.423.539.154.154.309.295.463.424.153.128.346.18.577.154a.684.684 0 0 1 .192.385c.051.128.09.257.117.385.025.128.064.244.115.347.077.077.192.103.346.077-.385.847-.834 1.502-1.347 1.964a5.116 5.116 0 0 1-1.695 1.001c-.641.231-1.36.411-2.155.539-.77.128-1.631.282-2.581.462-.231.051-.423.038-.577-.038a1.717 1.717 0 0 0-.539-.077c-.59.128-1.296.244-2.118.346s-1.656.141-2.503.116a10.659 10.659 0 0 1-2.425-.346c-.77-.18-1.399-.514-1.887-1.001a1.411 1.411 0 0 1-.424-.616c-.051-.257-.218-.449-.501-.578a10.314 10.314 0 0 0-.154-1.117 151.73 151.73 0 0 1-.231-1.271 27.816 27.816 0 0 1-.192-1.348c-.026-.436 0-.834.077-1.194.078-.385.231-.732.462-1.04.257-.308.347-.642.27-1.001.129-.026.206-.09.231-.192.026-.128.129-.18.309-.154.154-.462.321-.898.501-1.309s.359-.809.539-1.194c.205-.385.398-.77.577-1.155a13 13 0 0 0 .577-1.348 3.493 3.493 0 0 1-.808-1.078 7.618 7.618 0 0 1-.346-1.194 19.437 19.437 0 0 1-.193-1.232 7.809 7.809 0 0 0-.27-1.309c.257-.385.565-.693.925-.924.385-.257.795-.462 1.232-.616s.911-.282 1.425-.385a61.898 61.898 0 0 0 1.617-.347 31.081 31.081 0 0 1 2.734-.77c.822-.18 1.617-.321 2.387-.424.795-.128 1.617-.244 2.464-.347s1.809-.257 2.888-.462c.231.231.449.347.655.347.102-.231.217-.295.346-.193.153.077.218 0 .192-.231.257.436.578.809.962 1.117.411.282.861.526 1.349.732z" style="fill:var(--color3, #303030)"/>
      <path fill="#303030" d="M180.833 11.194c-.641 0-1.334.051-2.079.154-.744.077-1.475.167-2.194.27a35.37 35.37 0 0 1-1.502.193c-.463.051-.886.09-1.271.116a18.605 18.605 0 0 1-1.116 2.773c-.206.436-.398.886-.577 1.348a31.01 31.01 0 0 0-.463 1.425 14.82 14.82 0 0 0-.655 1.155 6.129 6.129 0 0 0-.384 1.155 4.215 4.215 0 0 0-.694 1.232c-.154.411-.27.77-.346 1.078l-.154.462c-.154.154-.243.282-.27.385a.505.505 0 0 1-.192.231 2.164 2.164 0 0 1-.27.847c-.051.128-.09.257-.115.385-.026.103-.039.18-.039.231 0 .257-.064.424-.192.501.025.128.025.27 0 .424-.026.128-.051.257-.078.385-.077.308-.102.552-.077.732.077.103.142.192.192.27.078.077.129.18.154.308.154.103.27.167.346.192.103.077.257.167.463.27l.346.385c.128.744.013 1.335-.346 1.771-.385.488-1.04.732-1.963.732h-.463c-.128-.128-.205-.231-.231-.308-.206-.077-.373-.141-.501-.193s-.243-.154-.346-.308a29.493 29.493 0 0 1-.809-.385l-.346-.193v-.462a2.842 2.842 0 0 1-.424-.77 9.92 9.92 0 0 1-.192-.847 4.86 4.86 0 0 0-.192-.655 1.7 1.7 0 0 0-.232-.539c-.05-1.489.09-2.747.424-3.773s.68-2.015 1.04-2.965l.616-1.54a17.59 17.59 0 0 0 .538-1.656l.347-.385c.179-.411.32-.744.423-1.001l.385-.847c.078-.18.142-.347.193-.501.077-.18.141-.334.192-.462-.154 0-.295.013-.423.039-.129 0-.257.013-.385.039-.154.026-.296.051-.424.077h-.385c-.179 0-.307-.013-.385-.039-.282.128-.59.193-.923.193h-.617a.331.331 0 0 0-.153-.039c-.257 0-.463.039-.616.116h-1.271a.636.636 0 0 0-.193.039h-.192c-.179 0-.373-.013-.577-.039a2.677 2.677 0 0 1-.655-.27c-.309-.411-.513-.629-.616-.655l-.346-.462a2.038 2.038 0 0 0-.117-.424c-.05-.154-.102-.321-.153-.501a26.937 26.937 0 0 1-.309-.809 4.475 4.475 0 0 1-.115-1.078c.026-.205.077-.359.154-.462.077-.103.141-.193.192-.27l.115-.578.501.038h1.079c.821 0 1.655-.026 2.503-.077.847-.077 1.72-.154 2.618-.231l1.539-.154c.539-.051 1.091-.103 1.656-.154.103-.231.206-.449.309-.655l.385-.193c.462-.026.783.038.962.193.205.128.371.257.501.385l1.694-.154a41.383 41.383 0 0 0 1.771-.27 93.809 93.809 0 0 1 2.618-.347 22.67 22.67 0 0 1 2.579-.154c.36 0 .706.013 1.04.038s.642.064.925.116l.385.27c.077.154.179.295.307.424l.462.385c.309.282.616.616.925 1.001.307.385.424.95.346 1.694-.206.308-.359.488-.462.539l-.346.462-.385-.039c-.154 0-.296.026-.424.077a2.194 2.194 0 0 0-.385.116l-.307.154a7.456 7.456 0 0 1-.347.077h-.577a2.14 2.14 0 0 0-.424-.039z" style="fill:var(--color3, #303030)"/>
      <path fill="#ffc107" d="M34.8 12.551c2.181 1.017 4.898-.177 6.057-2.662l.059-.127c1.124-2.408 1.787-3.829-.357-4.829a8.884 8.884 0 0 0-1.689-.546l-.026-.026-.057.008c-2.305-.48-4.93-.123-5.841 1.83-1.159 2.485-.327 5.334 1.854 6.351zm-.471-5.11c.674-.295 1.608-.461 2.8-.222 1.026.205 1.86.188 2.503.072a3.75 3.75 0 0 1-.354 1.862c-.753 1.614-2.432 2.431-3.743 1.82-1.175-.548-1.661-2.061-1.206-3.532zM29.353 11.661c-.767.784-1.753 1.176-2.778 1.105-.332-.023-1.07-.391-1.543-.627-.122-.061-.226-.113-.301-.148-1.433-.668-1.724-1.855-1.596-3.715.163-2.335 1.969-4.118 4.026-3.975.963.066 1.478.766 2.078 1.583l.001.001.113.153c.06.082.122.163.183.245.567.755 1.135 1.511 1.067 2.508-.076 1.105-.52 2.124-1.25 2.87zm-2.312-5.622c-1.1-.076-2.073.981-2.169 2.358-.094 1.376.725 2.557 1.824 2.632.506.035 1.008-.173 1.412-.585.441-.45.709-1.079.757-1.772s-.133-1.352-.507-1.859a1.962 1.962 0 0 0-.743-.625 1.599 1.599 0 0 0-.574-.149zM36.605 14.264a7.204 7.204 0 0 0-6.929.445l-5.044 3.194c-.837.53-1.468 1.299-1.824 2.223s-.404 1.918-.139 2.872c.265.955.819 1.781 1.601 2.389s1.719.942 2.71.963l.065.001a9.004 9.004 0 0 1 6.487 3.054 4.551 4.551 0 0 0 2.479 1.457c.969.208 1.958.102 2.86-.309s1.632-1.086 2.111-1.953c.48-.867.663-1.844.531-2.826l-.796-5.917a7.205 7.205 0 0 0-4.113-5.594zm3.063 10.857c-2.739-1.088-6.784-1.893-7.115 1.173a10.72 10.72 0 0 0-5.534-1.686l-.043-.001a2.823 2.823 0 0 1-2.631-2.076 2.82 2.82 0 0 1 .974-2.986c.647-.457 1.713-.654 3.809.245 3.2 1.371 3.238-.571 2.286-1.714 1.143 0 3.543-.343 4-1.714.087-.262.107-.487.075-.678a5.471 5.471 0 0 1 3.5 4.406l.677 5.032zM43.389 17.546a3.545 3.545 0 0 1-.942-.64c-1.606-1.518-1.509-4.239.217-6.065.818-.866 1.882-1.409 2.997-1.53.768-.083.94.196 1.196.611.132.215.287.468.56.725.229.216.532.428.846.648.781.545 1.631 1.139 1.588 1.975-.058 1.12-.541 2.213-1.359 3.079-1.421 1.504-3.511 1.938-5.102 1.197zm2.46-6.503c-.704.077-1.385.43-1.919.995-1.066 1.128-1.31 3.297-.402 4.156.909.859 2.363.556 3.429-.571.534-.565 1.117-1.735 1.154-2.442.034-.654-.179-1.233-.599-1.631s-1.011-.578-1.662-.507zM49.466 20.537c-1.229-1.889-3.423-1.862-5.479-.746-2.055 1.117-2.662 2.878-1.678 4.69a3.414 3.414 0 0 0 1.578 1.466c1.154.538 2.63.509 3.938-.2 2.055-1.117 2.624-3.397 1.641-5.209zm-2.471 3.678c-1.214.658-2.628.404-3.154-.566-.385-.71-.188-1.611.421-2.301 1.232-.21 2.791-.402 3.808-.335.063.077.12.161.168.251.525.969-.033 2.293-1.243 2.951z" style="fill:var(--color4, #ffc107)"/>
    </symbol>
    <symbol id="icon-logo-mobile" viewBox="0 0 32 32">
      <path fill="#303030" d="M.698 18.303c-.361-.049-.581-.24-.659-.573l.006-.068.055-.166a2.84 2.84 0 0 1 .068-.203.47.47 0 0 1 .123-.185c.012-.037.035-.092.068-.166a7.25 7.25 0 0 1 .179-.345c.066-.119.117-.213.154-.283.041-.07.074-.123.099-.16a.927.927 0 0 0-.172-.216 5.096 5.096 0 0 1-.172-.351 3.236 3.236 0 0 1-.105-.308 1.358 1.358 0 0 0-.049-.302l-.037-.16a.754.754 0 0 1-.018-.166.495.495 0 0 1-.043-.111l.012-.074c.021-.033.025-.076.012-.129a1.32 1.32 0 0 0-.037-.172l-.037-.166c-.008-.062-.01-.121-.006-.179s.018-.113.043-.166a.344.344 0 0 1 .142-.135l.062-.043.062.037c.045.029.088.053.129.074l.123.062c.049.025.099.051.148.08.049.025.103.053.16.086l.062.043-.006.068c0 .008.002.018.006.031s.01.023.018.031l.068.018.006.086v.074c0 .037.002.064.006.08a.142.142 0 0 0 .025.043l.031.08c0 .074.006.14.018.197s.027.115.043.172c.021.057.037.117.049.179a.6.6 0 0 1 .006.191.295.295 0 0 0 .074-.055l.025-.025.037-.025.431-.585-.012-.074.154-.148a3.03 3.03 0 0 0 .117-.099.52.52 0 0 0 .092-.123l.037-.055a1.15 1.15 0 0 1 .714-.456l.105-.025.031.099c.021.057.06.109.117.154.062.041.127.082.197.123l.068.043c.025.049.037.086.037.111s-.002.045-.006.062l.031.08a.736.736 0 0 1-.148.259 3.26 3.26 0 0 1-.166.142c-.045.037-.086.074-.123.111s-.066.078-.086.123l-.049.062a.368.368 0 0 0-.197.234l-.025.086h-.092c-.004 0-.014.01-.031.031a.589.589 0 0 0-.074.129 1.358 1.358 0 0 1-.08.099l-.031.031a.408.408 0 0 1-.025.055 1.03 1.03 0 0 1-.018.062l-.037.049a.332.332 0 0 0-.08.099 2.299 2.299 0 0 0-.11.222.52.52 0 0 1-.086.111l.012.068-.049.043a.391.391 0 0 0-.086.111 3.703 3.703 0 0 0-.074.129c-.025.049-.051.099-.08.148s-.066.094-.111.135a1.15 1.15 0 0 1-.08.172.694.694 0 0 1-.111.148c-.049.197-.166.408-.351.634a.338.338 0 0 1-.043.135c-.021.041-.043.08-.068.117a.553.553 0 0 1-.031.055l-.018.037-.018.068a.496.496 0 0 1-.08.111 1.457 1.457 0 0 1-.074.08.203.203 0 0 0-.037.031.161.161 0 0 1-.025.031l-.105.037zM13.154 14.596c.008.09.023.168.043.234s.043.129.068.191c.021.057.039.115.055.172a.75.75 0 0 1 .043.197 2.662 2.662 0 0 0-.074.296c-.012.09-.027.185-.043.283-.066.144-.129.271-.191.382s-.111.207-.148.289a.324.324 0 0 0-.055.074c-.012.025-.027.051-.043.08-.008.012-.018.031-.031.055s-.023.041-.031.049l-.123-.043-.025.154-.086.025-.062.074c-.078.135-.16.25-.246.345a1.75 1.75 0 0 1-.296.246c-.107.07-.23.135-.369.197-.135.062-.289.129-.462.203a1.643 1.643 0 0 0-.185-.012 26.79 26.79 0 0 1-.142-.012c-.078 0-.174-.006-.289-.018-.012-.033-.031-.055-.055-.068s-.047-.018-.068-.018a.358.358 0 0 1-.16-.142 4.128 4.128 0 0 1-.098-.209 1.754 1.754 0 0 0-.062-.123 1.881 1.881 0 0 0-.068-.123l.105-.031-.135-.148a.102.102 0 0 0-.031-.031.253.253 0 0 1-.031-.037l-.006-.099a18.452 18.452 0 0 1-.018-.776 2.13 2.13 0 0 1 .098-.634v-.068c.012-.09.025-.164.037-.222.012-.062.023-.119.031-.172.012-.09.031-.174.055-.252a.225.225 0 0 0 .129-.068c.029-.037.053-.07.074-.099.057-.004.096.004.117.025s.041.053.062.099c.021.037.045.078.074.123.033.045.08.08.142.105.008.033.018.068.031.105.016.033.033.07.049.111.033.07.062.144.086.222a.7.7 0 0 1 .049.216 1.133 1.133 0 0 0-.098.271 2.497 2.497 0 0 0-.043.314 2.52 2.52 0 0 0 .006.302c.012.094.031.174.055.24l.037.08.105-.012c.123-.033.234-.068.333-.105a1.74 1.74 0 0 0 .529-.327c.078-.074.16-.158.246-.252s.16-.201.222-.32a2.16 2.16 0 0 0 .16-.382c.045-.131.078-.261.098-.388.025-.131.041-.255.049-.369.07-.025.105-.074.105-.148l-.012-.068c-.016-.025-.016-.053 0-.086a.296.296 0 0 1 .172-.179.952.952 0 0 1 .172.135c.053.049.103.099.148.148zM14.453 17.459a3.13 3.13 0 0 1-.123.376 1.113 1.113 0 0 1-.154.259c-.053-.008-.09-.002-.111.018s-.043.039-.068.055c-.037.008-.064.008-.08 0s-.031-.018-.043-.031l-.049-.031a.194.194 0 0 0-.08-.012.497.497 0 0 0-.031-.092c-.008-.029-.035-.039-.08-.031a.193.193 0 0 0 .006-.08.229.229 0 0 0-.018-.062.987.987 0 0 0-.012-.055.163.163 0 0 1 .006-.074c-.021 0-.037-.014-.049-.043s-.027-.057-.043-.086c.012-.074.025-.144.037-.209s.027-.127.043-.185c.021-.058.037-.115.049-.172s.006-.117-.018-.179c.016.012.029.01.037-.006a.334.334 0 0 0 .018-.074.772.772 0 0 0 0-.172c.041-.107.074-.216.099-.326.029-.115.053-.228.074-.339l.074-.326c.025-.106.057-.205.098-.296a.281.281 0 0 1 .148.018c.057.016.092.039.105.068.107-.082.201-.181.283-.296.082-.119.166-.234.252-.345s.181-.209.283-.296a.74.74 0 0 1 .4-.154c.082.062.172.125.271.191a.76.76 0 0 1 .252.246.312.312 0 0 1 .08.055l.086.055v.074a.517.517 0 0 1 .117.16c.033.057.062.121.086.191l.074.203c.025.066.053.129.086.191a.157.157 0 0 0-.012.055c0 .012.002.027.006.043.008.016.014.033.018.049s.004.039 0 .068a.67.67 0 0 1-.179.437 1.297 1.297 0 0 1-.376.277c-.148.07-.306.129-.474.179s-.32.103-.456.16c0 .016.006.025.018.025.016 0 .023.01.018.031l.234.148c.057.037.111.068.16.092.053.025.109.047.166.068.062.016.146.037.252.062s.189.045.246.062c.062.012.117.025.166.037l.148.025.222.018a.454.454 0 0 1 .092.135.426.426 0 0 1 .055.154c.008.049.01.099.006.148a.19.19 0 0 1-.043.111c.004.012.012.018.025.018a.102.102 0 0 1 .049 0c-.025.016-.045.037-.062.062l-.049.074a.277.277 0 0 1-.055.062.137.137 0 0 1-.086.037c-.127.049-.287.051-.48.006a4.976 4.976 0 0 1-.733-.234 9.09 9.09 0 0 1-.363-.148 4.151 4.151 0 0 1-.24-.129 2.053 2.053 0 0 1-.185-.142 18.441 18.441 0 0 0-.197-.179zm.881-2.112a1.054 1.054 0 0 1-.154.179 6.383 6.383 0 0 0-.16.166 1.063 1.063 0 0 0-.135.185.657.657 0 0 0-.086.234c.144-.016.294-.055.45-.117l.443-.185a.537.537 0 0 0-.135-.308.513.513 0 0 0-.222-.154zM19.845 16.492c.004-.018.013-.024.027-.02a.127.127 0 0 0 .046-.007.24.24 0 0 1-.066-.139.29.29 0 0 0-.066-.153.415.415 0 0 0 .02-.066c.009-.022.029-.031.06-.027-.013-.097-.011-.188.007-.272s.044-.164.08-.239c.04-.075.084-.148.133-.219.053-.075.104-.15.153-.226.04-.009.064-.004.073.013.009.013.024.009.046-.013a.415.415 0 0 0 .146-.159.491.491 0 0 0 .04-.199c.04-.115.084-.228.133-.339.053-.115.113-.221.179-.319s.137-.181.212-.252a.828.828 0 0 1 .246-.173c.062-.053.139-.102.232-.146.097-.044.199-.077.305-.1.111-.027.224-.04.339-.04a1.09 1.09 0 0 1 .319.033c.022.009.035.004.04-.013.004-.022.015-.033.033-.033.221.027.418.071.591.133.177.062.328.148.451.259.084.133.164.277.239.432.075.15.133.31.173.478.044.164.064.334.06.511s-.042.354-.113.531a1.807 1.807 0 0 1-.564.471 4.35 4.35 0 0 1-.717.292 7.239 7.239 0 0 1-.79.186c-.27.049-.533.102-.79.159a6.17 6.17 0 0 1 0 .385 2.59 2.59 0 0 1-.046.405 2.107 2.107 0 0 1-.106.392 1.356 1.356 0 0 1-.186.358 1.014 1.014 0 0 0-.279.027 4.948 4.948 0 0 0-.252.066l-.106-.066a.284.284 0 0 0-.119-.033c.013-.053 0-.108-.04-.166a1.936 1.936 0 0 0-.113-.166.606.606 0 0 1-.073-.166c-.009-.058.018-.108.08-.153-.035-.031-.053-.08-.053-.146a.09.09 0 0 0 .066.027.828.828 0 0 1 .027-.285c.031-.111.055-.219.073-.325a.856.856 0 0 0 .013-.299.244.244 0 0 0-.159-.199zm1.726-1.553a3.69 3.69 0 0 0-.079.233 1.001 1.001 0 0 1-.046.093l-.046.106c.009.027.027.046.053.06s.044.033.053.06a.768.768 0 0 1 .186-.066c.062-.018.124-.031.186-.04s.124-.02.186-.033c.062-.013.126-.035.193-.066s.135-.055.206-.073l.219-.066c.071-.022.139-.046.206-.073a.608.608 0 0 0 .173-.12c-.062-.058-.155-.108-.279-.153s-.259-.071-.405-.08a1.432 1.432 0 0 0-.431.027.784.784 0 0 0-.372.193zM27.599 14.627a.22.22 0 0 1 0 .073.112.112 0 0 1-.007.04v.046a.24.24 0 0 0 .014.066.783.783 0 0 1-.325.312c-.119.053-.25.093-.392.12-.142.022-.288.046-.438.073a1.291 1.291 0 0 0-.438.173.2.2 0 0 0-.159 0 .376.376 0 0 1-.199.02.257.257 0 0 1-.1.06c-.04.009-.08.02-.119.033.018.04.024.082.02.126 0 .04.007.073.02.1.155.013.325.011.511-.007.19-.018.376-.029.558-.033.004.022.002.038-.007.046-.009.004-.011.015-.007.033a.56.56 0 0 1 .093.086l.093.093a.736.736 0 0 0 .093.08.213.213 0 0 0 .119.02.322.322 0 0 1 .033.119.215.215 0 0 1-.013.126c-.071.049-.142.1-.212.153a1.862 1.862 0 0 1-.472.233.98.98 0 0 1-.285.027h-.053c-.009 0-.022-.007-.04-.02-.035.022-.086.029-.153.02-.062-.009-.111-.002-.146.02a.38.38 0 0 0-.179-.027.556.556 0 0 1-.179-.027c-.071.093-.135.192-.193.299s-.108.219-.153.339c.15.022.274.031.372.027.102-.004.197-.011.285-.02.088-.013.179-.024.272-.033.093-.013.21-.018.352-.013a.827.827 0 0 1 .312-.093c.124-.018.237-.044.339-.08a.213.213 0 0 1 .093.073c.027.031.051.062.073.093.027.027.053.051.08.073s.06.031.1.027c.018.018.029.04.033.066.009.022.015.044.02.066s.011.042.02.06c.013.013.033.018.06.013a1.02 1.02 0 0 1-.232.339c-.084.075-.181.133-.292.173s-.235.071-.372.093c-.133.022-.281.049-.445.08a.144.144 0 0 1-.1-.007.294.294 0 0 0-.093-.013c-.102.022-.224.042-.365.06s-.285.024-.431.02a1.78 1.78 0 0 1-.418-.06.66.66 0 0 1-.325-.173.242.242 0 0 1-.073-.106c-.009-.044-.038-.077-.086-.1-.004-.058-.013-.122-.027-.193s-.027-.144-.04-.219a5.62 5.62 0 0 1-.033-.232.8.8 0 0 1 .013-.206.433.433 0 0 1 .08-.179.194.194 0 0 0 .046-.173c.022-.004.035-.015.04-.033.004-.022.022-.031.053-.027.027-.08.055-.155.086-.226l.093-.206a4.626 4.626 0 0 0 .2-.431.611.611 0 0 1-.139-.186 1.352 1.352 0 0 1-.06-.206 4.04 4.04 0 0 1-.033-.212 1.416 1.416 0 0 0-.046-.226.535.535 0 0 1 .159-.159c.066-.044.137-.08.212-.106s.157-.049.246-.066l.279-.06a5.26 5.26 0 0 1 .471-.133c.142-.031.279-.055.412-.073.137-.022.279-.042.425-.06s.312-.044.498-.08c.04.04.077.06.113.06.018-.04.038-.051.06-.033.027.013.038 0 .033-.04.044.075.1.139.166.193.071.049.148.091.233.126z" style="fill:var(--color3, #303030)"/>
      <path fill="#303030" d="M31.217 15.171c-.111 0-.23.009-.358.027-.129.013-.255.029-.378.046a6.81 6.81 0 0 1-.478.053 3.386 3.386 0 0 1-.193.478 4.904 4.904 0 0 0-.1.232 6.592 6.592 0 0 0-.08.246 2.54 2.54 0 0 0-.113.199 1.055 1.055 0 0 0-.066.199.71.71 0 0 0-.119.212 1.623 1.623 0 0 0-.06.186l-.026.08a.176.176 0 0 0-.047.066.084.084 0 0 1-.033.04.362.362 0 0 1-.047.146.415.415 0 0 0-.02.066c-.004.018-.007.031-.007.04 0 .044-.011.073-.033.086a.223.223 0 0 1 0 .073l-.013.066c-.013.053-.018.095-.013.126l.033.046a.098.098 0 0 1 .026.053.251.251 0 0 0 .06.033.506.506 0 0 0 .08.046l.06.066c.022.128.002.23-.06.305-.066.084-.179.126-.339.126h-.08a.175.175 0 0 1-.04-.053l-.086-.033a.14.14 0 0 1-.06-.053l-.14-.066-.06-.033v-.08a.49.49 0 0 1-.073-.133 1.915 1.915 0 0 1-.033-.146.932.932 0 0 0-.033-.113.3.3 0 0 0-.04-.093c-.009-.257.015-.474.073-.651s.117-.347.179-.511l.106-.266a3.06 3.06 0 0 0 .093-.285l.06-.066.073-.173.066-.146a.981.981 0 0 0 .033-.086l.033-.08a.335.335 0 0 0-.073.007.296.296 0 0 0-.066.007l-.073.013h-.066a.207.207 0 0 1-.066-.007.384.384 0 0 1-.159.033H28.355a.068.068 0 0 0-.026-.007.241.241 0 0 0-.106.02h-.219a.093.093 0 0 0-.033.007h-.033a.722.722 0 0 1-.1-.007.489.489 0 0 1-.113-.046c-.053-.071-.089-.108-.106-.113l-.06-.08a.312.312 0 0 0-.02-.073 2.258 2.258 0 0 1-.027-.086c-.018-.044-.035-.091-.053-.139a.785.785 0 0 1-.02-.186c.004-.035.013-.062.027-.08l.033-.046.02-.1.086.007h.186c.142 0 .286-.004.432-.013l.451-.04.266-.027.285-.027.053-.113.066-.033c.079-.004.135.007.166.033a.458.458 0 0 1 .086.066l.292-.027a18.001 18.001 0 0 1 .756-.106c.155-.018.303-.027.445-.027a2.06 2.06 0 0 1 .338.027l.066.046a.267.267 0 0 0 .053.073l.08.066c.053.049.106.106.159.173s.073.164.06.292a.313.313 0 0 1-.079.093l-.06.08-.066-.007a.193.193 0 0 0-.073.013.332.332 0 0 0-.066.02l-.053.027-.06.013h-.1a.411.411 0 0 0-.073-.007z" style="fill:var(--color3, #303030)"/>
      <path fill="#ffc107" d="M6.039 15.405c.376.175.845-.031 1.044-.459l.01-.022c.194-.415.308-.66-.062-.833a1.458 1.458 0 0 0-.291-.094l-.004-.004-.01.001c-.397-.083-.85-.021-1.007.316-.2.428-.056.92.32 1.095zm-.081-.881a.798.798 0 0 1 .483-.038c.177.035.321.032.431.012a.64.64 0 0 1-.061.321c-.13.278-.419.419-.645.314-.203-.095-.286-.355-.208-.609zM5.1 15.252a.603.603 0 0 1-.479.19c-.057-.004-.185-.067-.266-.108l-.052-.025c-.247-.115-.297-.32-.275-.64.028-.403.339-.71.694-.685.166.011.255.132.358.273l.019.026.032.042c.098.13.196.26.184.432a.786.786 0 0 1-.215.495zm-.398-.969c-.19-.013-.357.169-.374.406s.125.441.314.454a.31.31 0 0 0 .243-.101c.076-.078.122-.186.131-.305s-.023-.233-.087-.32a.343.343 0 0 0-.128-.108.285.285 0 0 0-.099-.026zM6.35 15.701a1.24 1.24 0 0 0-1.195.077l-.87.551a.784.784 0 0 0-.062 1.29.784.784 0 0 0 .467.166h.011a1.55 1.55 0 0 1 1.118.527.794.794 0 0 0 .921.199.787.787 0 0 0 .456-.824l-.137-1.02a1.242 1.242 0 0 0-.709-.964zm.529 1.872c-.472-.188-1.17-.326-1.227.202a1.858 1.858 0 0 0-.954-.291h-.007a.488.488 0 0 1-.286-.873c.112-.079.295-.113.657.042.552.236.558-.099.394-.296.197 0 .611-.059.69-.296a.25.25 0 0 0 .013-.117.942.942 0 0 1 .603.759l.117.867zM7.52 16.266a.588.588 0 0 1-.162-.11c-.277-.262-.26-.731.037-1.046a.842.842 0 0 1 .517-.264c.133-.014.162.034.206.105.023.037.05.081.097.125.039.037.092.074.146.112.135.094.281.196.274.341a.841.841 0 0 1-.234.531c-.245.259-.605.334-.88.206zm.424-1.121a.539.539 0 0 0-.331.172c-.184.194-.226.568-.069.717s.407.096.591-.099c.092-.097.193-.299.199-.421.006-.113-.031-.213-.103-.281s-.174-.1-.287-.087zM8.568 16.782c-.212-.326-.59-.321-.945-.129s-.459.496-.289.809a.595.595 0 0 0 .272.253.758.758 0 0 0 .679-.035c.354-.193.453-.586.283-.898zm-.426.634c-.209.113-.453.07-.544-.098-.066-.122-.032-.278.073-.397.212-.036.481-.069.657-.058a.25.25 0 0 1 .029.043c.091.167-.006.395-.214.509z" style="fill:var(--color4, #ffc107)"/>
    </symbol>
    <symbol id="icon-logout" viewBox="0 0 32 32">
      <path fill="none"  stroke-linecap="round" stroke-linejoin="round" stroke-width="2" d="M18.667 5.333H24A2.667 2.667 0 0 1 26.667 8v16A2.667 2.667 0 0 1 24 26.667h-5.333M4 16h16M4 16l5.333-5.333M4 16l5.333 5.333" />
    </symbol>
    <symbol id="icon-male" viewBox="0 0 32 32">
      <path fill="none"  stroke-linecap="round" stroke-linejoin="round" stroke-width="1.92" d="M16.33 14.72c-3.535 0-6.4 2.865-6.4 6.4s2.865 6.4 6.4 6.4 6.4-2.865 6.4-6.4-2.865-6.4-6.4-6.4zm0 0V4.48m0 0 5.12 5.12m-5.12-5.12L11.21 9.6" />
    </symbol>
    <symbol id="icon-menu-hamburger" viewBox="0 0 32 32">
      <path fill="none"  stroke-linecap="round" stroke-linejoin="round" stroke-width="2" d="M5.333 9.333h21.333M5.333 16h21.333M5.333 22.667h21.333" />
    </symbol>
    <symbol id="icon-pawprint" viewBox="0 0 32 32">
      <path y d="M20.482 19.149c-.356-2.644-2.011-4.897-4.429-6.024s-5.208-.948-7.462.479l-5.432 3.439c-.901.571-1.58 1.399-1.964 2.394s-.436 2.065-.15 3.093c.286 1.028.882 1.918 1.725 2.573s1.852 1.014 2.919 1.037l.07.001a9.697 9.697 0 0 1 6.986 3.289 4.915 4.915 0 0 0 2.67 1.569c1.043.224 2.108.109 3.08-.332s1.757-1.169 2.274-2.103a4.903 4.903 0 0 0 .572-3.044l-.857-6.372zm-2.765 9.812a3.04 3.04 0 0 1-3.563-.766 11.561 11.561 0 0 0-8.423-3.929l-.046-.001a3.04 3.04 0 0 1-2.833-2.236 3.041 3.041 0 0 1 1.31-3.401l5.432-3.439c1.712-1.084 3.829-1.22 5.665-.364s3.093 2.566 3.363 4.574l.857 6.372a3.04 3.04 0 0 1-1.763 3.19zM6.295 12.527c1.103.077 2.165-.346 2.991-1.19.786-.803 1.264-1.901 1.346-3.091S10.391 5.904 9.723 5c-.702-.949-1.696-1.514-2.798-1.59-2.216-.154-4.161 1.766-4.336 4.281-.137 2.003.89 3.786 2.433 4.506.394.184.822.298 1.272.329zM4.461 7.821C4.564 6.339 5.612 5.2 6.797 5.282c.214.015.422.069.618.161.302.141.576.369.8.673.403.546.597 1.257.546 2.002s-.341 1.423-.816 1.908c-.435.444-.975.668-1.52.63h-.001C5.24 10.575 4.36 9.303 4.461 7.821zM14.188 11.529c2.349 1.095 5.275-.191 6.523-2.867s.353-5.746-1.996-6.841c-2.349-1.095-5.275.191-6.523 2.868s-.352 5.745 1.996 6.84zm3.735-8.008c1.411.658 1.9 2.609 1.089 4.348s-2.619 2.618-4.031 1.96-1.9-2.608-1.089-4.347c.811-1.739 2.619-2.619 4.031-1.961zM20.992 16.152a3.83 3.83 0 0 0 1.014.689c1.713.799 3.964.33 5.495-1.289.881-.932 1.401-2.109 1.463-3.315.065-1.262-.371-2.404-1.23-3.217s-2.025-1.184-3.281-1.047c-1.201.131-2.347.716-3.227 1.648-1.858 1.966-1.963 4.896-.234 6.531zm1.596-5.243c.575-.609 1.309-.989 2.067-1.071.701-.076 1.337.118 1.79.546s.682 1.052.645 1.756c-.039.761-.378 1.516-.953 2.124-1.148 1.215-2.878 1.45-3.857.525-.978-.925-.84-2.665.308-3.88zM30.227 19.769v-.001c-1.062-1.952-3.726-2.563-5.94-1.362-2.213 1.203-3.152 3.77-2.093 5.721a3.679 3.679 0 0 0 1.699 1.579c1.243.58 2.833.548 4.241-.215 2.213-1.203 3.152-3.769 2.093-5.722zm-2.988 4.073c-1.307.709-2.831.435-3.397-.609-.566-1.043.035-2.469 1.339-3.178.867-.47 1.83-.508 2.545-.174.362.169.661.433.852.784.565 1.044-.036 2.469-1.339 3.178z" />
    </symbol>
    <symbol id="icon-plus" viewBox="0 0 32 32">
      <path fill="none"  stroke-linecap="round" stroke-width="2.667" d="M16 26.667V16m0 0V5.333M16 16h10.667M16 16H5.333" />
    </symbol>
    <symbol id="icon-plus-small" viewBox="0 0 32 32">
      <path fill="none"  stroke-linecap="round" stroke-linejoin="round" stroke-width="2" d="M16 9.333v13.333M9.333 16h13.333" />
    </symbol>
    <symbol id="icon-round" viewBox="0 0 32 32">
      <path fill="none"  stroke-linejoin="round" stroke-width="2" d="M5.333 10.667a5.333 5.333 0 0 1 5.333-5.333h10.667a5.333 5.333 0 0 1 5.333 5.333v10.667a5.333 5.333 0 0 1-5.333 5.333H10.666a5.333 5.333 0 0 1-5.333-5.333V10.667z" />
    </symbol>
    <symbol id="icon-search" viewBox="0 0 32 32">
      <path y d="M25.96 27.374a.999.999 0 1 0 1.414-1.414l-1.414 1.414zM23 14a9 9 0 0 1-9 9v2c6.075 0 11-4.925 11-11h-2zm-9 9a9 9 0 0 1-9-9H3c0 6.075 4.925 11 11 11v-2zm-9-9a9 9 0 0 1 9-9V3C7.925 3 3 7.925 3 14h2zm9-9a9 9 0 0 1 9 9h2c0-6.075-4.925-11-11-11v2zm13.374 20.96-5.583-5.583-1.414 1.414 5.583 5.583 1.414-1.414z" />
    </symbol>
    <symbol id="icon-trash" viewBox="0 0 32 32">
      <path fill="none"  stroke-linecap="round" stroke-linejoin="round" stroke-width="2" d="M24 8v16a2.667 2.667 0 0 1-2.667 2.667H10.666A2.667 2.667 0 0 1 7.999 24V8M20 8V6.667A2.667 2.667 0 0 0 17.333 4h-2.667a2.667 2.667 0 0 0-2.667 2.667V8M5.333 8h21.333m-13.333 5.333v8m5.334-8v8" />
    </symbol>
    <symbol id="icon-user" viewBox="0 0 32 32">
      <path fill="none" stroke="#ffc107" stroke-linecap="round" stroke-linejoin="round" stroke-width="1.714" d="M25.143 27.429v-2.286a4.571 4.571 0 0 0-4.571-4.571h-9.143a4.571 4.571 0 0 0-4.571 4.571v2.286m13.713-16a4.571 4.571 0 1 1-9.142 0 4.571 4.571 0 0 1 9.142 0z" style="stroke:var(--color4, #ffc107)"/>
      <path fill="none" stroke="#ffc107" stroke-width="1.714" d="M16 .857c8.363 0 15.143 6.78 15.143 15.143S24.363 31.143 16 31.143.857 24.363.857 16 7.637.857 16 .857z" style="stroke:var(--color4, #ffc107)"/>
    </symbol>
  </defs>
</svg>
